<svg width="100" height="29" fill="none" xmlns="http://www.w3.org/2000/svg"><path d="M71.523 28.09a21.018 21.018 0 0 0 12.488-4.087 1.326 1.326 0 0 0 .263-1.868 1.3 1.3 0 0 0-1.842-.224 19.6 19.6 0 0 1-19.973 2.72 19.72 19.72 0 0 1-6.492-4.492.367.367 0 1 0-.55.487 20.95 20.95 0 0 0 16.075 7.465" fill="#FFCE02"/><path d="M62.348 16.713a3.184 3.184 0 0 1-2.888-2.078 3.196 3.196 0 0 1-.198-1.235 3.109 3.109 0 0 1 1.855-3.07 3.098 3.098 0 0 1 4.164 1.815c.142.402.2.83.169 1.255a3.197 3.197 0 0 1-1.88 3.034c-.385.173-.8.268-1.222.28Zm0-10.195a6.698 6.698 0 0 0-5.017 1.904 6.713 6.713 0 0 0-2.016 4.978 7.038 7.038 0 0 0 2.138 4.82 7.02 7.02 0 0 0 9.766 0 7.037 7.037 0 0 0 2.138-4.82 6.729 6.729 0 0 0-4.311-6.444 6.706 6.706 0 0 0-2.698-.438M77.498 16.713a3.187 3.187 0 0 1-2.895-2.076 3.198 3.198 0 0 1-.199-1.237 3.109 3.109 0 0 1 1.856-3.07 3.099 3.099 0 0 1 4.163 1.815c.142.402.2.83.169 1.255a3.196 3.196 0 0 1-3.094 3.313Zm0-10.195c-4.107 0-7.041 2.882-7.041 6.882 0 1.866.74 3.655 2.058 4.974a7.02 7.02 0 0 0 9.934 0 7.039 7.039 0 0 0 2.058-4.974 6.738 6.738 0 0 0-2.014-4.963 6.721 6.721 0 0 0-4.995-1.92M41.098 18.278a1.75 1.75 0 0 0 1.746 1.749h2.177V6.686h-3.923v11.592ZM40.754 2.358a2.309 2.309 0 0 0 1.417 2.137 2.302 2.302 0 0 0 3.147-1.676A2.311 2.311 0 0 0 44.34.448a2.303 2.303 0 0 0-2.163-.217 2.296 2.296 0 0 0-1.423 2.127M30.176 6.662v13.357H29.06a1.983 1.983 0 0 1-1.794-1.15 5.577 5.577 0 0 1-3.19 1.15h-.59a7.234 7.234 0 0 1-4.242-1.461c-1.324-1.086-1.826-2.331-1.826-4.743V6.63h3.931v7.29a2.469 2.469 0 0 0 2.46 2.326 2.462 2.462 0 0 0 2.46-2.327V6.59l3.907.073ZM11.315 12.394h-.056L5.191 2.014A3.503 3.503 0 0 0 1.746.012H0v20.024h3.923V7.995h.056s4.457 7.609 5.948 10.116a3.504 3.504 0 0 0 3.365 1.972h1.874V.01h-3.851v12.383ZM92.649 16.713a3.185 3.185 0 0 1-2.895-2.076 3.198 3.198 0 0 1-.2-1.237 3.109 3.109 0 0 1 1.875-3.011 3.098 3.098 0 0 1 4.132 1.775c.146.395.21.816.19 1.236a3.196 3.196 0 0 1-3.102 3.313Zm7.264-14.37A2.317 2.317 0 0 0 97.6.026h-1.658v8.55a4.69 4.69 0 0 0-4.09-2.06c-3.613 0-6.165 2.755-6.165 6.78 0 4.023 2.496 6.993 6.164 6.993a4.78 4.78 0 0 0 4.186-2.1 1.997 1.997 0 0 0 1.97 1.837h1.994v-9.094l-.088-8.59ZM36.577 10.278a3.418 3.418 0 0 0 3.185-2.114 3.43 3.43 0 0 0 .26-1.319v-.168h-3.716v-5.03l-3.141 1.246a1.26 1.26 0 0 0-.798 1.174V14.9c0 2.028.144 2.619.877 3.529a4.315 4.315 0 0 0 3.557 1.645 10.84 10.84 0 0 0 3.19-.511v-.176a1.999 1.999 0 0 0-2.042-2.004h-.096a1.401 1.401 0 0 1-1.595-1.397v-5.709h.32ZM51.182 3.396a1.096 1.096 0 0 1 1.184-.992c.19.017.374.083.53.193.423.389.974.607 1.548.615.917 0 1.523-.583 2.152-1.597A5.976 5.976 0 0 0 52.34.02C49.587.01 47.195 1.32 47.195 5.304v14.73h3.923v-9.788h.862a3.417 3.417 0 0 0 3.167-2.112 3.43 3.43 0 0 0 .261-1.313v-.144h-4.282V3.643a2.432 2.432 0 0 1 0-.247" fill="#086D46"/></svg>